<svg
   width="220.63029mm"
   height="138.4989mm"
   viewBox="0 0 220.63029 138.4989"
   version="1.1"
   id="svg5"
   xml:space="preserve"
   xmlns="http://www.w3.org/2000/svg"
   xmlns:svg="http://www.w3.org/2000/svg"><defs
     id="defs2" /><g
     id="g10133"
     style="display:inline"
     transform="translate(17.571789,-48.635424)"><path
       id="path10129"
       style="display:inline;fill:#ffffff;stroke:#ffffff;stroke-width:0.225007"
       d="m 91.849085,48.747928 c -8.638027,2.59e-4 -102.129189,30.380086 -106.390316,34.571413 -4.261128,4.191322 -3.422142,64.945869 0.954753,69.136939 4.3768999,4.19107 98.707533,34.5658 107.34557,34.56554 8.638028,-2.6e-4 102.129188,-30.38062 106.390308,-34.57194 4.26114,-4.19133 3.42215,-64.945881 -0.95475,-69.136948 C 194.81776,79.121864 100.48713,48.74767 91.849085,48.747928 Z m 0.0688,6.284935 c 0.250524,-8e-6 0.578587,0.02721 0.979465,0.07956 0.400878,0.05236 0.874628,0.130166 1.415907,0.231747 0.541278,0.101581 1.150116,0.226652 1.821836,0.374319 0.67174,0.147667 1.406484,0.317732 2.198704,0.508349 1.58448,0.381232 3.399643,0.845604 5.406433,1.379801 2.00679,0.534198 4.20493,1.138521 6.55445,1.800578 2.34951,0.662057 4.85054,1.381786 7.46319,2.146596 2.61265,0.76481 5.33694,1.574331 8.13312,2.41679 2.79619,0.842458 5.66411,1.717759 8.56424,2.612759 2.90013,0.895001 5.83255,1.809934 8.75703,2.732372 2.92447,0.922437 5.84128,1.852456 8.71053,2.777225 2.86924,0.924769 5.69081,1.84426 8.42521,2.746252 2.73441,0.901995 5.38161,1.786413 7.90158,2.64053 2.51997,0.854116 4.91271,1.677848 7.13864,2.458971 2.22594,0.781129 4.28506,1.51963 6.13738,2.202664 1.85232,0.68304 3.49773,1.310689 4.89683,1.870531 0.69953,0.279921 1.33771,0.542674 1.90902,0.787088 0.57132,0.244413 1.07626,0.470248 1.5094,0.676017 0.43315,0.205768 0.79473,0.391884 1.07974,0.555869 0.1425,0.08199 0.26551,0.158119 0.36912,0.229081 0.10361,0.07095 0.18745,0.136437 0.25092,0.195966 0.0635,0.05953 0.12608,0.131485 0.18794,0.215727 0.0619,0.08425 0.12335,0.180704 0.18359,0.288884 0.12048,0.216359 0.23725,0.480246 0.35119,0.787617 0.11394,0.307378 0.225,0.658227 0.3323,1.05034 0.10731,0.392112 0.21089,0.825388 0.31147,1.295965 0.10058,0.470578 0.19785,0.978546 0.29162,1.521312 0.0938,0.54276 0.18439,1.120352 0.27126,1.729023 0.0869,0.608671 0.17008,1.248683 0.24995,1.916983 0.0799,0.668306 0.15632,1.3646 0.22912,2.086258 0.14561,1.443315 0.27704,2.987033 0.39382,4.606103 0.11677,1.61907 0.21892,3.31377 0.30615,5.05838 0.0873,1.74462 0.15955,3.53908 0.21652,5.35902 0.057,1.81994 0.0985,3.66508 0.1245,5.51013 0.026,1.84505 0.0362,3.69019 0.0306,5.51013 -0.006,1.81994 -0.0269,3.61493 -0.065,5.35955 -0.0381,1.74461 -0.0926,3.43877 -0.16373,5.05785 -0.0711,1.61908 -0.15908,3.16278 -0.26399,4.6061 -0.0525,0.72166 -0.109,1.41849 -0.17004,2.0868 -0.061,0.6683 -0.12647,1.3083 -0.19617,1.91698 -0.0697,0.60868 -0.14389,1.18572 -0.22234,1.72849 -0.0785,0.54277 -0.1612,1.05126 -0.24851,1.52184 -0.0873,0.47058 -0.17889,0.90331 -0.27514,1.29543 -0.0962,0.39212 -0.19699,0.74349 -0.30226,1.05087 -0.10526,0.30739 -0.21501,0.57072 -0.3294,0.78709 -0.0572,0.10818 -0.11587,0.20463 -0.17534,0.28888 -0.0595,0.0843 -0.11986,0.15673 -0.18167,0.21626 -0.0618,0.0595 -0.14397,0.12447 -0.24558,0.19544 -0.10161,0.071 -0.22262,0.14761 -0.36282,0.22961 -0.28039,0.164 -0.63689,0.35008 -1.06423,0.55587 -0.42734,0.2058 -0.92559,0.43157 -1.49003,0.67602 -0.56442,0.24445 -1.19509,0.50713 -1.88674,0.78709 -1.3833,0.55992 -3.01098,1.18791 -4.84402,1.87106 -1.83306,0.68315 -3.87148,1.4214 -6.07538,2.20266 -2.20392,0.78126 -4.5735,1.60579 -7.06938,2.46004 -2.49588,0.85426 -5.11801,1.73838 -7.82697,2.64053 -2.70896,0.90215 -5.50456,1.82185 -8.34771,2.74679 -2.84317,0.92493 -5.73409,1.85515 -8.63255,2.77776 -2.89847,0.92261 -5.80462,1.83773 -8.67953,2.7329 -2.87489,0.89517 -5.71817,1.77068 -8.49059,2.6133 -2.77243,0.84262 -5.47423,1.65236 -8.06531,2.41732 -2.59108,0.76496 -5.0718,1.48494 -7.40264,2.14713 -2.33085,0.6622 -4.51187,1.2668 -6.5036,1.80111 -1.99171,0.53432 -3.79394,0.99848 -5.36765,1.37981 -0.786863,0.19066 -1.516623,0.36063 -2.184183,0.50835 -0.667574,0.1477 -1.272774,0.27324 -1.811194,0.37485 -0.5384,0.10161 -1.010215,0.17937 -1.409603,0.23175 -0.399407,0.0524 -0.726532,0.079 -0.977037,0.079 -0.250532,0 -0.578605,-0.0267 -0.979473,-0.079 -0.400869,-0.0524 -0.874629,-0.13017 -1.415907,-0.23175 -0.541279,-0.10159 -1.150114,-0.22719 -1.821829,-0.37486 -0.671742,-0.14766 -1.406477,-0.31773 -2.198707,-0.50834 -1.584469,-0.38123 -3.400116,-0.84507 -5.406908,-1.37927 -2.006792,-0.5342 -4.204448,-1.13852 -6.55397,-1.80058 -2.349511,-0.66206 -4.850537,-1.38178 -7.463187,-2.1466 -2.612648,-0.7648 -5.336931,-1.57486 -8.133125,-2.41732 -2.796184,-0.84246 -5.664587,-1.71723 -8.564713,-2.61223 -2.900137,-0.895 -5.832066,-1.80993 -8.756554,-2.73237 -2.924475,-0.92243 -5.841282,-1.85245 -8.710527,-2.77722 -2.869233,-0.92477 -5.690815,-1.84426 -8.425214,-2.74626 -2.7344,-0.90199 -5.381606,-1.78641 -7.901579,-2.64053 -2.519962,-0.85411 -4.912703,-1.67784 -7.138635,-2.45897 -2.2259443,-0.78113 -4.2850671,-1.51963 -6.1373881,-2.20266 -1.85231,-0.68304 -3.49821513,-1.31069 -4.89731083,-1.87053 -0.69954217,-0.27992 -1.33722437,-0.5432 -1.90854597,-0.78762 -0.5713101,-0.24441 -1.0762468,-0.47025 -1.5093972,-0.67602 -0.4331389,-0.20576 -0.7947194,-0.39135 -1.0797254,-0.55534 -0.1425088,-0.082 -0.26551,-0.15865 -0.3691191,-0.22961 -0.1036091,-0.071 -0.1874524,-0.1359 -0.2509252,-0.19543 -0.063461,-0.0595 -0.1265687,-0.13202 -0.18843,-0.21626 -0.061861,-0.0842 -0.1228605,-0.18071 -0.1831023,-0.28889 -0.1204838,-0.21636 -0.2377442,-0.47971 -0.3516811,-0.78708 -0.1139368,-0.30738 -0.2245048,-0.65876 -0.3318094,-1.05088 -0.1073047,-0.39211 -0.2113807,-0.82485 -0.3119566,-1.29543 -0.1005759,-0.47057 -0.1973558,-0.97908 -0.291129,-1.52184 -0.093762,-0.54276 -0.1843919,-1.11981 -0.2712657,-1.72848 -0.086863,-0.60868 -0.1700726,-1.24869 -0.2499506,-1.91699 -0.079878,-0.6683 -0.1563207,-1.36514 -0.2291175,-2.08679 -0.1456165,-1.44332 -0.2770536,-2.98703 -0.3938225,-4.60611 -0.1167688,-1.61907 -0.2189161,-3.31323 -0.3061441,-5.05785 -0.087228,-1.74461 -0.1595482,-3.53961 -0.2165305,-5.35955 -0.056971,-1.81993 -0.098478,-3.66508 -0.1244869,-5.51012 -0.026009,-1.84505 -0.036659,-3.68967 -0.031001,-5.5096 0.00566,-1.81994 0.027359,-3.61493 0.065399,-5.35955 0.038028,-1.74462 0.092602,-3.43931 0.1637182,-5.05839 0.071116,-1.61907 0.1590936,-3.162775 0.2640017,-4.606102 0.052459,-0.72166 0.1089861,-1.41795 0.1700217,-2.086252 0.061035,-0.668308 0.1264883,-1.308309 0.1961851,-1.916988 0.069708,-0.608673 0.1438775,-1.186257 0.2223435,-1.729024 0.078466,-0.542767 0.1611944,-1.050723 0.2485034,-1.521308 0.087309,-0.470578 0.1788919,-0.903844 0.2751406,-1.295969 0.096237,-0.392119 0.1969918,-0.742952 0.3022653,-1.050336 0.1052622,-0.307376 0.2150089,-0.571253 0.3293926,-0.787617 0.057186,-0.108182 0.1158645,-0.204631 0.1753513,-0.288886 0.059487,-0.08425 0.119861,-0.156187 0.1816563,-0.215724 0.061783,-0.05954 0.1439782,-0.125006 0.2455926,-0.19597 0.1016032,-0.07097 0.2226158,-0.147611 0.3628093,-0.229615 0.2803983,-0.164001 0.6368955,-0.34954 1.0642365,-0.555336 0.427341,-0.205795 0.9255926,-0.431573 1.4900224,-0.676017 0.5644298,-0.244444 1.1950949,-0.507655 1.8867484,-0.787621 1.38330687,-0.55992 3.0109785,-1.187384 4.8440229,-1.870527 1.8330559,-0.683143 3.8714721,-1.421941 6.0753789,-2.203196 2.2039063,-0.781261 4.5734943,-1.605247 7.0693753,-2.459509 2.49588,-0.854262 5.118017,-1.738909 7.826973,-2.64106 2.708967,-0.902157 5.504559,-1.821854 8.347714,-2.74679 2.843154,-0.924936 5.733585,-1.854617 8.632052,-2.777226 2.898467,-0.922608 5.805117,-1.838268 8.680008,-2.733439 2.874902,-0.89517 5.718184,-1.770138 8.490612,-2.612759 2.772428,-0.842622 5.474219,-1.652895 8.065308,-2.417858 2.591078,-0.764963 5.071305,-1.484402 7.402157,-2.146596 2.33084,-0.662194 4.511859,-1.266797 6.503586,-1.801112 1.991726,-0.534314 3.794433,-0.998477 5.368146,-1.379802 0.786863,-0.190662 1.516617,-0.360641 2.184175,-0.508348 0.667571,-0.147707 1.272779,-0.273241 1.81118,-0.374853 0.53841,-0.101613 1.009732,-0.179368 1.409139,-0.231747 0.399388,-0.05238 0.727001,-0.07956 0.977514,-0.07956 z" /></g><g
     id="layer15"
     style="display:inline"
     transform="translate(17.571789,-48.635424)"><text
       xml:space="preserve"
       style="font-style:normal;font-variant:normal;font-weight:normal;font-stretch:normal;font-size:77.5919px;font-family:'VVDS_Big Tickle';-inkscape-font-specification:'VVDS_Big Tickle, Normal';font-variant-ligatures:normal;font-variant-caps:normal;font-variant-numeric:normal;font-variant-east-asian:normal;display:inline;fill:#ffffff;fill-rule:nonzero;stroke:#ffffff;stroke-width:0.763701;stroke-linecap:round;stroke-linejoin:round;stroke-dasharray:none;paint-order:fill markers stroke"
       x="-60.123131"
       y="143.89578"
       id="text10119"
       transform="matrix(1.0406865,-0.34012569,0.50230888,0.79673547,0,0)"><tspan
         id="tspan10125"
         x="-60.123131"
         y="143.89578"
         style="fill:#ffffff;stroke:#ffffff;stroke-width:0.763701">W</tspan></text><text
       xml:space="preserve"
       style="font-style:normal;font-variant:normal;font-weight:normal;font-stretch:normal;font-size:73.9889px;font-family:'VVDS_Big Tickle';-inkscape-font-specification:'VVDS_Big Tickle, Normal';font-variant-ligatures:normal;font-variant-caps:normal;font-variant-numeric:normal;font-variant-east-asian:normal;display:inline;fill:#ffffff;fill-rule:nonzero;stroke:#ffffff;stroke-width:0.728238;stroke-linecap:round;stroke-linejoin:round;stroke-dasharray:none;paint-order:fill markers stroke"
       x="-17.047808"
       y="131.48094"
       id="text10137"
       transform="matrix(0.99603014,-0.21123889,0.5549327,0.8862951,0,0)"><tspan
         id="tspan10143"
         x="-17.047808"
         y="131.48094"
         style="fill:#ffffff;stroke:#ffffff;stroke-width:0.728238">hisk</tspan></text><text
       xml:space="preserve"
       style="font-style:normal;font-variant:normal;font-weight:normal;font-stretch:normal;font-size:66.9113px;font-family:'VVDS_Big Tickle';-inkscape-font-specification:'VVDS_Big Tickle, Normal';font-variant-ligatures:normal;font-variant-caps:normal;font-variant-numeric:normal;font-variant-east-asian:normal;display:inline;fill:#ffffff;fill-rule:nonzero;stroke:#ffffff;stroke-width:0.658576;stroke-linecap:round;stroke-linejoin:round;stroke-dasharray:none;paint-order:fill markers stroke"
       x="39.375278"
       y="144.14641"
       id="text300"
       transform="matrix(1.1023991,-0.19085674,0.61419561,0.80077771,0,0)"><tspan
         id="tspan306"
         x="39.375278"
         y="144.14641"> y</tspan></text><text
       xml:space="preserve"
       style="font-style:normal;font-variant:normal;font-weight:normal;font-stretch:normal;font-size:66.9113px;font-family:'VVDS_Big Tickle';-inkscape-font-specification:'VVDS_Big Tickle, Normal';font-variant-ligatures:normal;font-variant-caps:normal;font-variant-numeric:normal;font-variant-east-asian:normal;display:inline;fill:#ffffff;fill-rule:nonzero;stroke:#ffffff;stroke-width:0.658576;stroke-linecap:round;stroke-linejoin:round;stroke-dasharray:none;paint-order:fill markers stroke"
       x="39.693275"
       y="142.59882"
       id="text310"
       transform="matrix(1.1023991,-0.19085674,0.61419561,0.80077771,0,0)"><tspan
         id="tspan312"
         x="39.693275"
         y="142.59882">e</tspan></text></g><g
     id="layer14"
     style="display:inline"
     transform="translate(17.571789,-48.635424)"><text
       xml:space="preserve"
       style="font-style:normal;font-variant:normal;font-weight:normal;font-stretch:normal;font-size:73.9813px;font-family:'VVDS_Big Tickle';-inkscape-font-specification:'VVDS_Big Tickle, Normal';font-variant-ligatures:normal;font-variant-caps:normal;font-variant-numeric:normal;font-variant-east-asian:normal;display:inline;fill:#ffffff;fill-opacity:1;fill-rule:nonzero;stroke:#ffffff;stroke-width:0.728166;stroke-linecap:round;stroke-linejoin:round;stroke-dasharray:none;paint-order:fill markers stroke"
       x="13.611433"
       y="202.8436"
       id="text10096"
       transform="matrix(1.0249594,-0.25689922,0.50893772,0.84808655,0,0)"><tspan
         id="tspan10098"
         x="13.611433"
         y="202.8436"
         style="fill:#ffffff;stroke:#ffffff;stroke-width:0.728166">tick</tspan></text><text
       xml:space="preserve"
       style="font-style:normal;font-variant:normal;font-weight:normal;font-stretch:normal;font-size:73.6199px;font-family:'VVDS_Big Tickle';-inkscape-font-specification:'VVDS_Big Tickle, Normal';font-variant-ligatures:normal;font-variant-caps:normal;font-variant-numeric:normal;font-variant-east-asian:normal;display:inline;fill:#ffffff;fill-opacity:1;fill-rule:nonzero;stroke:#ffffff;stroke-width:0.724609;stroke-linecap:round;stroke-linejoin:round;stroke-dasharray:none;paint-order:fill markers stroke"
       x="7.626925"
       y="207.83568"
       id="text10102"
       transform="matrix(1.0349991,-0.33737563,0.36060406,0.84863935,0,0)"><tspan
         id="tspan10104"
         x="7.626925"
         y="207.83568"
         style="fill:#ffffff;stroke:#ffffff;stroke-width:0.724609">S</tspan></text></g></svg>
